# xmcd CD database file
#
# Track frame offsets:
#	150
#	18907
#	36475
#	57365
#	80280
#	102110
#	124607
#	142152
#	160527
#	180882
#	199840
#	221397
#	245055
#
# Disc length: 3487 seconds
#
# Revision: 0
# Processed by: cddbd v1.5.1PL0 Copyright (c) Steve Scherf et al.
# Submitted via: CDex 1.51
#
DISCID=aa0d9d0d
DTITLE=James Brown - Living In America
DYEAR=1900
DGENRE=Soul
TTITLE0=Living In America
TTITLE1=Can't Get Any Harder
TTITLE2=Just Do It
TTITLE3=Show Me
TTITLE4=How Do You Stop
TTITLE5=I'm Real
TTITLE6=Gravity
TTITLE7=(So Tired Of Standing Still We Got To)More On
TTITLE8=Georgia-Lina
TTITLE9=Cold Sweat
TTITLE10=Static(Part1 and 2)
TTITLE11=Dance Dance Dance To The Funk
TTITLE12=Sex Machine
EXTD=
EXTT0=
EXTT1=
EXTT2=
EXTT3=
EXTT4=
EXTT5=
EXTT6=
EXTT7=
EXTT8=
EXTT9=
EXTT10=
EXTT11=
EXTT12=
PLAYORDER=
